<?xml version="1.0" standalone="no"?>
<!DOCTYPE svg PUBLIC "-//W3C//DTD SVG 20010904//EN"
 "http://www.w3.org/TR/2001/REC-SVG-20010904/DTD/svg10.dtd">
<svg version="1.0" xmlns="http://www.w3.org/2000/svg"
 width="287.000000pt" height="287.000000pt" viewBox="0 0 287.000000 287.000000"
 preserveAspectRatio="xMidYMid meet">
<metadata>
Created by potrace 1.14, written by Peter Selinger 2001-2017
</metadata>
<g transform="translate(0.000000,287.000000) scale(0.100000,-0.100000)"
fill="#000000" stroke="none">
<path d="M291 2862 c-13 -4 -4 -28 31 -79 15 -23 28 -49 28 -57 0 -9 5 -16 10
-16 6 0 10 -7 10 -15 0 -8 5 -15 12 -15 6 0 8 -3 5 -7 -4 -3 -1 -13 7 -22 7
-9 26 -41 42 -71 16 -30 35 -60 42 -68 6 -7 12 -20 12 -28 0 -8 5 -14 10 -14
6 0 10 -5 10 -11 0 -6 31 -63 68 -127 37 -64 74 -129 82 -144 7 -16 17 -28 22
-28 4 0 8 -9 8 -19 0 -11 3 -21 8 -23 9 -4 40 -56 53 -90 6 -16 15 -28 20 -28
5 0 9 -5 9 -11 0 -6 16 -38 36 -72 35 -58 47 -80 93 -159 10 -18 30 -53 45
-78 15 -25 31 -57 37 -72 6 -16 15 -28 19 -28 4 0 13 -12 19 -27 6 -16 26 -55
45 -87 28 -50 32 -63 22 -80 -6 -12 -13 -23 -16 -26 -3 -3 -18 -30 -34 -60
-16 -30 -33 -57 -37 -60 -4 -3 -12 -17 -18 -30 -6 -14 -22 -43 -36 -65 -14
-22 -27 -47 -31 -55 -6 -17 -6 -17 -63 -114 -23 -38 -41 -73 -41 -77 0 -5 -4
-9 -9 -9 -5 0 -12 -11 -15 -25 -4 -14 -11 -25 -16 -25 -6 0 -10 -9 -10 -20 0
-11 -4 -20 -10 -20 -5 0 -12 -11 -16 -25 -3 -14 -10 -25 -14 -25 -4 0 -13 -12
-20 -27 -12 -29 -20 -45 -87 -158 -22 -38 -50 -86 -61 -105 -11 -19 -43 -75
-72 -125 -29 -49 -62 -108 -75 -130 -12 -22 -41 -72 -64 -112 -22 -40 -41 -76
-41 -80 0 -4 360 -8 800 -8 440 0 800 3 800 6 0 3 11 19 24 34 14 16 24 31 23
34 -1 7 23 53 32 61 3 3 19 31 35 63 16 31 33 57 38 57 4 0 8 5 8 11 0 7 19
44 41 83 23 39 55 96 72 126 17 30 33 57 37 60 6 5 12 17 21 45 1 6 11 19 21
29 10 11 18 23 18 27 0 12 83 153 94 161 6 4 7 8 2 8 -5 0 -2 8 6 18 8 9 35
53 59 97 24 44 48 88 54 97 5 9 42 72 80 139 39 67 82 143 97 168 65 111 63
101 29 159 -17 29 -31 57 -31 62 0 6 -3 10 -8 10 -4 0 -15 17 -25 38 -10 20
-26 51 -37 67 -11 17 -27 47 -37 68 -10 20 -21 37 -25 37 -5 0 -8 7 -8 15 0 8
-4 15 -10 15 -5 0 -10 6 -10 13 0 6 -25 53 -55 102 -30 50 -61 104 -70 120 -8
17 -26 48 -39 70 -14 22 -32 56 -42 75 -10 19 -20 37 -23 40 -10 9 -42 64 -54
93 -6 15 -15 27 -19 27 -4 0 -8 4 -8 9 0 6 -29 60 -65 121 -36 61 -76 130 -89
153 -13 23 -40 71 -61 107 -21 36 -45 78 -53 93 -8 16 -21 31 -28 34 -15 6
-1597 10 -1613 5z"/>
</g>
</svg>
